<svg xmlns="http://www.w3.org/2000/svg" viewBox="0 0 516 516"><rect width="516" height="516" fill="#11acee"/><path d="M469.83,411l-.25,3.74a77.37,77.37,0,0,1-37.31,58.75,132.8,132.8,0,0,1-51.1,17c-5.24.75-10.47,1.33-15.62,1.75-4.32.33-8.81.66-13.38.66a112.83,112.83,0,0,1-14.12-.5,74.86,74.86,0,0,1-26-6.23c-2.66-1.16-12.63.58-15.13-1.08a29.19,29.19,0,0,1-15-22.18c-3.4-18.78-5.48-47.87,4.82-64.4A147.35,147.35,0,0,1,325.5,359c29.83-21.77,49.35-39.22,53-78.93A119.51,119.51,0,0,0,365,215.7c-14.46-32.24-29.09-74.62-61.91-89.82-1.16-.59-2.41-1.08-3.57-1.58l16.62-16.62,2.66.74c19.86,5.74,143.42,45.37,151.06,144.67a144.2,144.2,0,0,1-23.27,88.41,279.26,279.26,0,0,1-23.18,30.83c-9.64,11.38-22.43,21.43-27.25,36.06a18.38,18.38,0,0,0-1.08,8.47,19.68,19.68,0,0,0,11.05,13,48.85,48.85,0,0,0,9.64,3.74,47,47,0,0,0,24.67.08,44.39,44.39,0,0,0,9.89-3.91C456.2,426.5,469.66,418.61,469.83,411Z" fill="#ff9801"/><path d="M440.41,433.65a80,80,0,0,1-33.07,39.8,132.8,132.8,0,0,1-51.1,17c-5.23.75-10.47,1.33-15.62,1.75a24.79,24.79,0,0,1-2.57.16,74.86,74.86,0,0,1-26-6.23c-2.66-1.16-12.63.58-15.13-1.08a29.19,29.19,0,0,1-15-22.18c-3.4-18.78-5.48-47.87,4.82-64.4A147.35,147.35,0,0,1,325.5,359c29.83-21.77,49.35-39.22,53-78.93A119.51,119.51,0,0,0,365,215.7c-14.46-32.24-29.09-74.62-61.91-89.82-1.16-.59-2.41-1.08-3.57-1.58L310,113.83C349.59,128,438.42,169.33,444.9,253.09a144.2,144.2,0,0,1-23.27,88.41,278,278,0,0,1-23.18,30.83c-9.64,11.38-22.43,21.43-27.25,36.06a18.38,18.38,0,0,0-1.08,8.47,19.68,19.68,0,0,0,11.05,13,47.59,47.59,0,0,0,34.57,3.74A47,47,0,0,0,440.41,433.65Z" fill="#fec108"/><path d="M325.52,217.78c.08,36.39-39.74,79.35-88.35,101.78a155.64,155.64,0,0,0-17.53,9.56c19.44-27.42-5.32-64.73-7.23-67.56,2.66-.08-2.17-11.1-.56-13.29C284.28,148.51,311.15,239,325.52,217.78Z" fill="#fb79a6"/><path d="M394.63,279.51c-3.66,39.72-31.41,60.16-61.24,81.93A135.8,135.8,0,0,0,295.83,399a76.23,76.23,0,0,0-7.14,54.92,41.09,41.09,0,0,0,15.62,28,50.38,50.38,0,0,0,7.73,4.23A84.35,84.35,0,0,1,282.79,497a189.59,189.59,0,0,1-29,4.66c-.42,0-.75.08-1.16.08a138.43,138.43,0,0,1-19.53.5,74,74,0,0,1-43-13.46c-29.17-22.35-34.73-65.15-22.93-97a127.08,127.08,0,0,1,52.43-62.65,155.64,155.64,0,0,1,17.53-9.56c48.61-22.43,61.9-61.65,61.82-98.05-.08-44.45-44.79-80.59-44.79-80.59,10.31-2.91,42.8-10.81,48.86-15a173.38,173.38,0,0,1,78.19,81A149.8,149.8,0,0,1,394.63,279.51Z" fill="#ff9801"/><path d="M318.77,108.42a43.52,43.52,0,0,1-15.71,17.46,80.64,80.64,0,0,1-24.34,10.88A215,215,0,0,1,299,221.51a106.28,106.28,0,0,1-78.44,39.89c-2.74,0-5.48.08-8.14.16-29.33,1.41-52.76,10.89-83.26,41.38C95.91,336.18,71,286.33,62.68,269.71S46.06,244.78,87.6,219.85c30.83-18.53,38.81-46.11,57.84-69.38,10.55,14.37-3.21-22.71,16,1.52-1.57-.33,3.72-8.44,3.47-9.69-1.75-7.14,6.13-9.7,9.29-16.42,12.8-27,14.13-22.38,39.93-21,1,0,30.8-4.24,31.79-4.15a100.24,100.24,0,0,0,25.18-13.61c9.89-7,25.34-12,49.19-8.55A40.09,40.09,0,0,1,318.77,108.42Z" fill="#fb79a6"/><path d="M141.76,125.13,39.53,27.73a4.16,4.16,0,0,1,4.58-6.82L174.17,84.64Z" fill="#ff9801"/><path d="M271.07,87.15a44,44,0,0,0-17.28,24.68c-1-.08-2-.16-3-.16-25.85-1.42-60.66.49-73.46,27.5a32.06,32.06,0,0,0-1.91,21.35c.25,1.25,2,9.14,3.58,9.47a64.83,64.83,0,0,1-33.57-19.52,27,27,0,0,1-3.66-25.34.08.08,0,0,0,.08-.09,78.76,78.76,0,0,1,20.53-29.83A129.28,129.28,0,0,1,174,84.91l.17-.17A73.11,73.11,0,0,1,271.07,87.15Z" fill="#fec108"/><path d="M241.05,172.75c-3.17-7.43-15-9.32-26.41-4.22s-18.09,15.26-14.92,22.69,15,9.32,26.41,4.22S244.23,180.18,241.05,172.75Z" fill="#fff"/><path d="M226.47,185.32c0,7.3-5.61,13.21-12.53,13.21s-12.53-5.91-12.53-13.21,5.61-13.21,12.53-13.21S226.47,178,226.47,185.32Z" fill="#37474f"/><path d="M234.21,177.32a8.31,8.31,0,1,1-8.32-8.3A8.31,8.31,0,0,1,234.21,177.32Z" fill="#fff"/><path d="M132.56,127.83a34.49,34.49,0,0,0,1.9,20c.28.68.73,1.24,1.06,1.9-5,6.6-9.24,13.36-13.36,19.94a115.68,115.68,0,0,1-38.83,43.05c-39,23.45-40.77,36.15-29.73,57.49l1.67,3.2C61.91,286.79,77.61,318.1,101.8,322a31.67,31.67,0,0,0,5,.42,40.21,40.21,0,0,0,28.26-13.63c26.4-26.41,46.76-35.66,69.09-38.22a8.11,8.11,0,0,0,1.66,4.32c.23.29,22.57,28.66,7.93,48.19a134.44,134.44,0,0,0-54.27,65.75c-12.46,33.58-7.64,80.93,25.67,106.45a84.94,84.94,0,0,0,53.28,15.37c1.92,0,4.06-.22,6.05-.29a5.53,5.53,0,0,0,4.18-.22c2-.13,3.82-.1,5.88-.29A196,196,0,0,0,284.65,505a103.54,103.54,0,0,0,27.88-9.67,103.72,103.72,0,0,0,36.61,5.9c6.16,0,12-.36,17.15-.83a157.06,157.06,0,0,0,70.37-20,85.87,85.87,0,0,0,41.2-65c.13-1.41.22-2.82.26-4.25v-.09a8.31,8.31,0,0,0-8.1-8.46,8,8,0,0,0-8.51,7.94c-.19.51-2.11,4.67-15.18,11.85a38.8,38.8,0,0,1-36.29.05c-3.89-2.11-6.42-4.69-6.77-6.9A10.61,10.61,0,0,1,404,411a69.3,69.3,0,0,1,17.36-24.09c2.87-3,5.74-6,8.37-9.14A281,281,0,0,0,453.63,346a152.62,152.62,0,0,0,24.49-93.52C470.4,152.07,357.76,113.73,328.81,105.49a49.31,49.31,0,0,0-.84-30,8.31,8.31,0,0,0-6.54-5.14C295.63,66.67,278.42,72,267,80a69.34,69.34,0,0,0-45.51-21.19A75.66,75.66,0,0,0,173.3,75L47.83,13.49a12.43,12.43,0,0,0-14,20.23Zm89.8,141.81a118.71,118.71,0,0,0,66.16-25.4,97.79,97.79,0,0,1-3.72,14.49,91.34,91.34,0,0,1-49.53,52.46A71.29,71.29,0,0,0,222.36,269.64Zm58.5,219.22A182.26,182.26,0,0,1,253,493.33c-1.12.1-2.13.14-3.23.21-10.33-15.09-44-72.22,2-118.25A8.31,8.31,0,0,0,240,363.54c-47.15,47.15-24,104.41-9.49,130.18a63.67,63.67,0,0,1-35.35-11.63c-26.6-20.4-30.27-60.3-20.2-87.49a118.41,118.41,0,0,1,49.08-58.5,146,146,0,0,1,16.57-9,107.73,107.73,0,0,0,59.83-62.86c16.8-47.89-1.75-101.71-10.42-122.47a94,94,0,0,0,11.38-5.16,146.26,146.26,0,0,1,72.3,73.67,142.17,142.17,0,0,1,12.62,68.5c-3.27,36.19-28.57,54.61-57.86,75.94a145.53,145.53,0,0,0-39.72,39.88,82.86,82.86,0,0,0-8.22,60.8A51.94,51.94,0,0,0,295.21,485,143,143,0,0,1,280.86,488.86ZM461.53,253.71a136.09,136.09,0,0,1-22,83.37A263.85,263.85,0,0,1,417.05,367c-2.44,2.87-5.09,5.65-7.75,8.45a82.48,82.48,0,0,0-21.08,30.36,26,26,0,0,0-1.36,12.4,27.21,27.21,0,0,0,15.25,18.9,55.84,55.84,0,0,0,52.19-.1l.83-.47a72,72,0,0,1-27.34,29.86,103.64,103.64,0,0,1-28.77,12,8.14,8.14,0,0,0-5.63-.69A38.14,38.14,0,0,1,361.92,471c-10.53-9.86-13.37-30.11-8.19-58.55a8.31,8.31,0,1,0-16.35-3c-6.32,34.76-1.89,59.54,13.18,73.66.58.54,1.19,1,1.78,1.47A76.55,76.55,0,0,1,308.88,475a33,33,0,0,1-12-22.62,67.37,67.37,0,0,1,6-49,130.42,130.42,0,0,1,35.39-35.24c29.84-21.72,60.66-44.19,64.65-87.87a157.15,157.15,0,0,0-14-76.8,165.37,165.37,0,0,0-72.23-77.94,52.54,52.54,0,0,0,4.3-5C339.51,125.67,454.38,160.77,461.53,253.71ZM261.92,113.49c.27-1.33,6.86-31.31,51.72-27.28A31.41,31.41,0,0,1,311,105.42c-5.22,10.44-16.87,18.28-34.61,23.38a8.3,8.3,0,0,0-5.14,11.71,210.23,210.23,0,0,1,19.29,78.29,98.28,98.28,0,0,1-70,34.29c-32.9,0-60.66,7.35-97.27,44a22.17,22.17,0,0,1-18.87,8.56c-15.78-2.56-29.23-29.5-34.3-39.64l-1.74-3.41c-6.19-11.93-8.49-16.41,23.51-35.61a130.72,130.72,0,0,0,44.37-48.47c3.33-5.32,6.65-10.38,10.14-15.32A78.91,78.91,0,0,0,176,177.74a11.92,11.92,0,0,0,1.33.38V178a10.24,10.24,0,0,0,1.66.26,8.32,8.32,0,0,0,6-14.05,49,49,0,0,1-1.52-5.71,23.66,23.66,0,0,1,1.35-15.79C193,125.48,214.38,118,250.73,120c.77,0,1.52.07,2.28.13A8.3,8.3,0,0,0,261.92,113.49Zm-41.4-38.13a53,53,0,0,1,34.43,16A55.59,55.59,0,0,0,248,103.19c-18.44-.88-62.27-1.21-78.2,32.4a39.56,39.56,0,0,0-3.52,20.89,30.9,30.9,0,0,1-17.1-16.81c-3.64-12.53,8.35-27.92,19.06-38.62,17.1-17.11,34.06-25.76,50.39-25.76ZM159.37,86.64c-1,.92-1.92,1.74-2.87,2.69a108.14,108.14,0,0,0-17.32,21.84L64.75,40.29Z"/><path d="M95.9,253.09a8.31,8.31,0,0,0-14.19-5.88,13.29,13.29,0,0,0-3.66,14.26c3.4,8.23,14.28,8.23,17.85,8.23a8.31,8.31,0,1,0,0-16.62Z"/><path d="M320.68,319.56a8.35,8.35,0,0,0,4.27-1.18c1.93-1.16,47-29.28,20.22-109.46a8.32,8.32,0,0,0-15.79,5.25c22.26,66.74-11.45,89-13.06,90a8.31,8.31,0,0,0,4.36,15.4Z"/><circle cx="380.08" cy="404.42" r="91.94" transform="translate(-174.65 387.21) rotate(-45)" fill="#fb79a6" stroke="#000" stroke-miterlimit="10" stroke-width="13"/><path d="M319.72,371.36l28.21-28.21a9,9,0,0,1,12.73,0l99.22,99.21a2.41,2.41,0,0,1,.64,1.18l11.7,49.16a2.35,2.35,0,0,1-1.74,2.83,2.28,2.28,0,0,1-1.19,0l-49.23-11.57a2.39,2.39,0,0,1-1.12-.63h0l-99.21-99.21a9,9,0,0,1,0-12.73Zm31.54-24.89-28.21,28.22a4.31,4.31,0,0,0,0,6.07l98.74,98.75,45,10.58-10.69-44.87-98.74-98.75a4.32,4.32,0,0,0-6.08,0Z" stroke="#000" stroke-miterlimit="10" stroke-width="6"/><path d="M422.26,483.3a2.35,2.35,0,0,1-3.32-3.32l37.65-37.66a2.35,2.35,0,0,1,3.32,3.33Z" stroke="#000" stroke-miterlimit="10" stroke-width="6"/><rect x="332.25" y="379.93" width="53.2" height="4.7" transform="translate(-165.21 365.71) rotate(-45)" stroke="#000" stroke-miterlimit="10" stroke-width="6"/><path d="M366.37,411.93a2.35,2.35,0,1,1,3.32-3.33L413.08,452a2.35,2.35,0,0,1-3.32,3.33Z" stroke="#000" stroke-miterlimit="10" stroke-width="6"/><path d="M375.77,402.52a2.35,2.35,0,0,1,3.33-3.32l43.38,43.39a2.35,2.35,0,1,1-3.32,3.32Z" stroke="#000" stroke-miterlimit="10" stroke-width="6"/><path d="M340,397.76l34.29-34.29-17-17a4.32,4.32,0,0,0-6.08,0l-28.21,28.22a4.31,4.31,0,0,0,0,6.07Z" fill="#f8bbd0" stroke="#000" stroke-miterlimit="10" stroke-width="6" fill-rule="evenodd"/><polygon points="456.9 448.66 425.24 480.32 466.77 490.08 456.9 448.66" fill="#ffccbc" stroke="#000" stroke-miterlimit="10" stroke-width="6" fill-rule="evenodd"/><path d="M420.6,478.32,454.89,444l-77.23-77.23-34.29,34.29,77.23,77.24Zm1.88-35.73a2.35,2.35,0,1,1-3.32,3.32l-43.39-43.39a2.35,2.35,0,0,1,3.33-3.32l43.38,43.39Zm6.08-6.08-43.39-43.39a2.35,2.35,0,0,1,3.33-3.33l43.39,43.39a2.35,2.35,0,1,1-3.33,3.33ZM369.69,408.6,413.08,452a2.35,2.35,0,0,1-3.32,3.33l-43.39-43.39a2.35,2.35,0,1,1,3.32-3.33Z" fill="#e6ee9c" stroke="#000" stroke-miterlimit="10" stroke-width="6" fill-rule="evenodd"/><path d="M366.56,366.85l4.8-4.79-13.42-13.41a3.34,3.34,0,0,0-2.39-1,3.38,3.38,0,0,0-2.4,1l-3,3a7.11,7.11,0,0,1,3,1.78Z" fill="#bb8e9d" fill-rule="evenodd"/><polygon points="379.73 369.21 374 374.95 389.96 390.91 430.88 431.83 446.84 447.79 452.58 442.06 379.73 369.21" fill="#adb277" fill-rule="evenodd"/><polygon points="456.17 453.1 451.81 457.46 458.27 484.58 463.99 485.92 456.17 453.1" fill="#c09a8e" fill-rule="evenodd"/><path d="M385.17,393.12a2.35,2.35,0,0,1,3.33-3.33l43.39,43.39a2.35,2.35,0,1,1-3.33,3.33Z" stroke="#000" stroke-miterlimit="10" stroke-width="6"/></svg>